<svg width="39" height="39" viewBox="0 0 39 39" fill="none" xmlns="http://www.w3.org/2000/svg">
<circle cx="19.1081" cy="19.1081" r="18.4257" stroke="#D4D4D8" stroke-width="1.36486"/>
<path d="M27.58 14.9913C27.0081 15.2455 26.4044 15.4043 25.769 15.4997C26.4044 15.1184 26.9128 14.5147 27.1352 13.7839C26.5315 14.1334 25.8643 14.3876 25.1335 14.5465C24.5616 13.9428 23.7355 13.5615 22.8459 13.5615C21.1301 13.5615 19.7321 14.9595 19.7321 16.6752C19.7321 16.9294 19.7639 17.1518 19.8275 17.3742C17.2539 17.2472 14.9345 16.008 13.3776 14.1017C13.1234 14.5783 12.9646 15.0866 12.9646 15.6585C12.9646 16.7388 13.5047 17.692 14.3626 18.2639C13.8542 18.2321 13.3776 18.105 12.9328 17.8826V17.9144C12.9328 19.4395 14.0131 20.7104 15.4428 20.9963C15.1886 21.0599 14.9027 21.0917 14.6167 21.0917C14.4261 21.0917 14.2037 21.0599 14.0131 21.0281C14.4261 22.2672 15.5699 23.1887 16.9361 23.1887C15.8559 24.0147 14.5214 24.5231 13.0599 24.5231C12.8057 24.5231 12.5515 24.5231 12.3291 24.4913C13.7271 25.381 15.3475 25.8893 17.1268 25.8893C22.8776 25.8893 26.0231 21.1234 26.0231 16.993C26.0231 16.8659 26.0231 16.707 26.0231 16.5799C26.6268 16.1669 27.167 15.6267 27.58 14.9913Z" fill="#090914"/>
</svg>
