<svg width="39" height="39" viewBox="0 0 39 39" fill="none" xmlns="http://www.w3.org/2000/svg">
<circle cx="19.2976" cy="19.1081" r="18.4257" stroke="#D4D4D8" stroke-width="1.36486"/>
<path d="M19.2991 11.5303C21.7677 11.5303 22.0601 11.5395 23.0353 11.584C23.6216 11.5912 24.2024 11.6988 24.7524 11.9023C25.1512 12.0561 25.5134 12.2917 25.8157 12.594C26.1179 12.8962 26.3535 13.2584 26.5073 13.6573C26.7108 14.2072 26.8185 14.788 26.8257 15.3743C26.8697 16.3496 26.8794 16.6419 26.8794 19.1106C26.8794 21.5792 26.8701 21.8715 26.8257 22.8468C26.8185 23.4331 26.7108 24.0139 26.5073 24.5639C26.3535 24.9627 26.1179 25.3249 25.8157 25.6271C25.5134 25.9294 25.1512 26.165 24.7524 26.3188C24.2024 26.5223 23.6216 26.6299 23.0353 26.6371C22.0605 26.6812 21.7682 26.6908 19.2991 26.6908C16.83 26.6908 16.5377 26.6816 15.5629 26.6371C14.9765 26.6299 14.3957 26.5223 13.8458 26.3188C13.447 26.165 13.0848 25.9294 12.7825 25.6271C12.4803 25.3249 12.2446 24.9627 12.0908 24.5639C11.8874 24.0139 11.7797 23.4331 11.7725 22.8468C11.7285 21.8715 11.7188 21.5792 11.7188 19.1106C11.7188 16.6419 11.728 16.3496 11.7725 15.3743C11.7797 14.788 11.8874 14.2072 12.0908 13.6573C12.2446 13.2584 12.4803 12.8962 12.7825 12.594C13.0848 12.2917 13.447 12.0561 13.8458 11.9023C14.3957 11.6988 14.9765 11.5912 15.5629 11.584C16.5381 11.54 16.8304 11.5303 19.2991 11.5303ZM19.2991 9.86426C16.7895 9.86426 16.4734 9.87482 15.4871 9.91973C14.7198 9.935 13.9605 10.0803 13.2417 10.3494C12.6251 10.5818 12.0666 10.9458 11.6052 11.4162C11.1344 11.8778 10.77 12.4366 10.5375 13.0536C10.2684 13.7724 10.1231 14.5317 10.1078 15.2991C10.0638 16.2844 10.0532 16.6005 10.0532 19.1101C10.0532 21.6197 10.0638 21.9358 10.1087 22.9221C10.124 23.6894 10.2693 24.4487 10.5384 25.1675C10.7706 25.7844 11.1347 26.3432 11.6052 26.8049C12.0669 27.2754 12.6257 27.6395 13.2426 27.8717C13.9614 28.1408 14.7206 28.2861 15.488 28.3014C16.4743 28.3454 16.7891 28.3569 19.3 28.3569C21.8109 28.3569 22.1257 28.3463 23.1119 28.3014C23.8793 28.2861 24.6385 28.1408 25.3573 27.8717C25.9713 27.6337 26.5289 27.2701 26.9944 26.8044C27.4599 26.3386 27.823 25.7807 28.0606 25.1666C28.3298 24.4478 28.4751 23.6886 28.4903 22.9212C28.5344 21.9358 28.5449 21.6197 28.5449 19.1101C28.5449 16.6005 28.5344 16.2844 28.4895 15.2982C28.4742 14.5308 28.3289 13.7716 28.0598 13.0528C27.8275 12.4358 27.4635 11.877 26.993 11.4154C26.5313 10.9448 25.9725 10.5808 25.3556 10.3486C24.6368 10.0794 23.8775 9.93412 23.1101 9.91885C22.1248 9.87482 21.8087 9.86426 19.2991 9.86426Z" fill="#090914"/>
<path d="M19.3012 14.3643C18.3621 14.3643 17.4442 14.6427 16.6634 15.1644C15.8826 15.6861 15.274 16.4277 14.9146 17.2953C14.5553 18.1628 14.4613 19.1175 14.6445 20.0385C14.8277 20.9595 15.2799 21.8055 15.9439 22.4695C16.6079 23.1336 17.4539 23.5858 18.3749 23.769C19.2959 23.9522 20.2506 23.8581 21.1182 23.4988C21.9857 23.1394 22.7273 22.5309 23.249 21.7501C23.7707 20.9693 24.0492 20.0513 24.0492 19.1122C24.0492 17.853 23.5489 16.6453 22.6585 15.7549C21.7681 14.8645 20.5604 14.3643 19.3012 14.3643ZM19.3012 22.1942C18.6916 22.1942 18.0958 22.0134 17.589 21.6748C17.0821 21.3361 16.6871 20.8548 16.4538 20.2916C16.2206 19.7285 16.1595 19.1088 16.2785 18.511C16.3974 17.9131 16.6909 17.364 17.1219 16.933C17.5529 16.5019 18.1021 16.2084 18.6999 16.0895C19.2978 15.9706 19.9175 16.0316 20.4806 16.2649C21.0438 16.4981 21.5251 16.8932 21.8637 17.4C22.2024 17.9068 22.3831 18.5027 22.3831 19.1122C22.3831 19.9296 22.0584 20.7135 21.4805 21.2915C20.9025 21.8695 20.1186 22.1942 19.3012 22.1942Z" fill="#090914"/>
<path d="M24.2355 15.2844C24.8482 15.2844 25.345 14.7877 25.345 14.1749C25.345 13.5622 24.8482 13.0654 24.2355 13.0654C23.6227 13.0654 23.126 13.5622 23.126 14.1749C23.126 14.7877 23.6227 15.2844 24.2355 15.2844Z" fill="#090914"/>
</svg>
