<svg width="39" height="39" viewBox="0 0 39 39" fill="none" xmlns="http://www.w3.org/2000/svg">
<circle cx="19.8918" cy="19.1081" r="18.4257" stroke="#D4D4D8" stroke-width="1.36486"/>
<path fill-rule="evenodd" clip-rule="evenodd" d="M20.7202 9.86426C15.819 9.86426 11.876 13.8073 11.876 18.7084C11.876 22.6146 14.4187 25.9312 17.9195 27.1104C18.3617 27.1841 18.5091 26.9262 18.5091 26.6682C18.5091 26.4471 18.5091 25.8943 18.5091 25.1573C16.0401 25.7101 15.5242 23.9781 15.5242 23.9781C15.1188 22.9463 14.5292 22.6883 14.5292 22.6883C13.7185 22.1356 14.6029 22.1356 14.6029 22.1356C15.4874 22.2093 15.9664 23.0568 15.9664 23.0568C16.7403 24.4203 18.0301 24.015 18.546 23.7938C18.6197 23.2042 18.8408 22.8357 19.0987 22.6146C17.1456 22.3935 15.082 21.6196 15.082 18.2294C15.082 17.2713 15.4136 16.4605 16.0033 15.8709C15.9296 15.6498 15.5979 14.7654 16.077 13.5125C16.077 13.5125 16.814 13.2914 18.5091 14.4338C19.2093 14.2495 19.9831 14.1389 20.7202 14.1389C21.4572 14.1389 22.231 14.2495 22.9312 14.4338C24.6263 13.2914 25.3634 13.5125 25.3634 13.5125C25.8424 14.7286 25.5476 15.613 25.4371 15.8709C25.9898 16.4974 26.3583 17.2713 26.3583 18.2294C26.3583 21.6196 24.2947 22.3567 22.3047 22.5778C22.6364 22.8357 22.8944 23.3885 22.8944 24.1992C22.8944 25.3784 22.8944 26.3365 22.8944 26.6314C22.8944 26.8525 23.0418 27.1473 23.5208 27.0736C27.0216 25.9312 29.5643 22.6146 29.5643 18.7084C29.5643 13.8073 25.6213 9.86426 20.7202 9.86426Z" fill="#090914"/>
</svg>
