<svg width="18" height="18" viewBox="0 0 18 18" fill="none" xmlns="http://www.w3.org/2000/svg">
<path d="M8.99984 15.667C12.6665 15.667 15.6665 12.667 15.6665 9.00033C15.6665 5.33366 12.6665 2.33366 8.99984 2.33366C5.33317 2.33366 2.33317 5.33366 2.33317 9.00033C2.33317 12.667 5.33317 15.667 8.99984 15.667ZM8.99984 0.666992C13.5832 0.666992 17.3332 4.41699 17.3332 9.00033C17.3332 13.5837 13.5832 17.3337 8.99984 17.3337C4.4165 17.3337 0.666504 13.5837 0.666504 9.00033C0.666504 4.41699 4.4165 0.666992 8.99984 0.666992ZM9.4165 9.66699L5.4165 12.0003L4.83317 10.8337L8.1665 8.91699V4.83366H9.4165V9.66699Z" fill="white"/>
</svg>
