<svg width="14" height="9" viewBox="0 0 14 9" fill="none" xmlns="http://www.w3.org/2000/svg">
<path d="M13.0669 2.4168L7.46693 8.03346C7.40026 8.10013 7.32804 8.14724 7.25026 8.1748C7.17248 8.2028 7.08915 8.2168 7.00026 8.2168C6.91137 8.2168 6.82804 8.2028 6.75026 8.1748C6.67248 8.14724 6.60026 8.10013 6.53359 8.03346L0.916927 2.4168C0.761371 2.26124 0.683593 2.0668 0.683593 1.83346C0.683593 1.60013 0.766927 1.40013 0.933593 1.23346C1.10026 1.0668 1.2947 0.983465 1.51693 0.983465C1.73915 0.983465 1.93359 1.0668 2.10026 1.23346L7.00026 6.13346L11.9003 1.23346C12.0558 1.07791 12.2474 1.00013 12.4749 1.00013C12.7029 1.00013 12.9003 1.08346 13.0669 1.25013C13.2336 1.4168 13.3169 1.61124 13.3169 1.83346C13.3169 2.05569 13.2336 2.25013 13.0669 2.4168Z" fill="black"/>
</svg>
