<svg width="21" height="21" viewBox="0 0 21 21" fill="none" xmlns="http://www.w3.org/2000/svg">
<path d="M14.875 20.7507C6.81094 20.7507 0.25 14.1898 0.25 6.12571C0.253049 4.74249 0.758294 3.40743 1.6718 2.36877C2.5853 1.3301 3.8449 0.658503 5.21641 0.478835C5.56603 0.440069 5.91891 0.51368 6.22388 0.688991C6.52885 0.864303 6.77005 1.1322 6.9125 1.45383L8.95391 6.21712C9.0598 6.46436 9.10225 6.73414 9.07742 7.00196C9.05259 7.26977 8.96126 7.52715 8.81172 7.75071L7.12578 10.3304C7.88921 11.8797 9.14713 13.1305 10.7008 13.8851L13.25 12.189C13.4733 12.0384 13.7313 11.9473 13.9997 11.9242C14.268 11.9011 14.5378 11.9468 14.7836 12.057L19.5469 14.0882C19.8685 14.2307 20.1364 14.4719 20.3117 14.7768C20.487 15.0818 20.5606 15.4347 20.5219 15.7843C20.3422 17.1558 19.6706 18.4154 18.6319 19.3289C17.5933 20.2424 16.2582 20.7477 14.875 20.7507ZM5.41953 2.09368C4.4394 2.21967 3.5388 2.6986 2.88635 3.44078C2.2339 4.18297 1.87435 5.13752 1.875 6.12571C1.87769 9.5727 3.24819 12.8777 5.68558 15.3151C8.12297 17.7525 11.428 19.123 14.875 19.1257C15.8632 19.1264 16.8177 18.7668 17.5599 18.1144C18.3021 17.4619 18.781 16.5613 18.907 15.5812L14.1437 13.5499L11.6047 15.246C11.3711 15.4005 11.1015 15.4919 10.8221 15.5115C10.5427 15.5311 10.263 15.4781 10.0102 15.3577C8.11799 14.4424 6.58743 12.919 5.66328 11.0312C5.54144 10.7792 5.48676 10.4999 5.50455 10.2206C5.52235 9.9412 5.61201 9.67117 5.76484 9.43665L7.46094 6.85696L5.41953 2.09368Z" fill="white"/>
</svg>
